<mxfile host="Electron" modified="2023-07-25T18:19:42.115Z" agent="Mozilla/5.0 (Windows NT 10.0; Win64; x64) AppleWebKit/537.36 (KHTML, like Gecko) draw.io/21.6.5 Chrome/114.0.5735.243 Electron/25.3.1 Safari/537.36" etag="DO6dCubokgaoJDYvh9gl" version="21.6.5" type="device">
  <diagram name="Página-1" id="8rL73LA8MVbVcYjSxsBo">
    <mxGraphModel dx="1436" dy="614" grid="1" gridSize="10" guides="1" tooltips="1" connect="1" arrows="1" fold="1" page="0" pageScale="1" pageWidth="827" pageHeight="1169" math="0" shadow="0">
      <root>
        <mxCell id="0" />
        <mxCell id="1" parent="0" />
        <mxCell id="njigGxz5zvyP1X_k_2Zv-1" value="Construa o Modelo Entidade Relacionamento considerando o seguinte cenário:&#xa;&#xa;&#xa;- uma empresa possui vários veículos&#xa;- um veículo possui marca(gm, ford, fiat), modelo(onix, fiesta, argo) e placa&#xa;- um cliente (cpf, nome) aluga um ou mais veículos" style="text;whiteSpace=wrap;fontSize=14;" parent="1" vertex="1">
          <mxGeometry x="20" y="20" width="520" height="110" as="geometry" />
        </mxCell>
        <mxCell id="njigGxz5zvyP1X_k_2Zv-21" style="edgeStyle=orthogonalEdgeStyle;rounded=0;orthogonalLoop=1;jettySize=auto;html=1;entryX=1;entryY=0.5;entryDx=0;entryDy=0;endArrow=none;endFill=0;" parent="1" source="njigGxz5zvyP1X_k_2Zv-2" target="njigGxz5zvyP1X_k_2Zv-19" edge="1">
          <mxGeometry relative="1" as="geometry" />
        </mxCell>
        <mxCell id="njigGxz5zvyP1X_k_2Zv-22" style="edgeStyle=orthogonalEdgeStyle;rounded=0;orthogonalLoop=1;jettySize=auto;html=1;entryX=0;entryY=0.5;entryDx=0;entryDy=0;endArrow=none;endFill=0;" parent="1" source="njigGxz5zvyP1X_k_2Zv-2" target="njigGxz5zvyP1X_k_2Zv-20" edge="1">
          <mxGeometry relative="1" as="geometry" />
        </mxCell>
        <mxCell id="njigGxz5zvyP1X_k_2Zv-2" value="&lt;font style=&quot;font-size: 14px;&quot;&gt;Cliente&lt;/font&gt;" style="rounded=0;whiteSpace=wrap;html=1;" parent="1" vertex="1">
          <mxGeometry x="-80" y="400" width="120" height="60" as="geometry" />
        </mxCell>
        <mxCell id="njigGxz5zvyP1X_k_2Zv-3" value="&lt;font style=&quot;font-size: 14px;&quot;&gt;Empresa&lt;/font&gt;" style="rounded=0;whiteSpace=wrap;html=1;" parent="1" vertex="1">
          <mxGeometry x="304" y="180" width="120" height="60" as="geometry" />
        </mxCell>
        <mxCell id="njigGxz5zvyP1X_k_2Zv-13" style="edgeStyle=orthogonalEdgeStyle;rounded=0;orthogonalLoop=1;jettySize=auto;html=1;entryX=1;entryY=0.5;entryDx=0;entryDy=0;endArrow=none;endFill=0;" parent="1" source="8dOA6z9LL_m_rFrBO-1a-1" target="njigGxz5zvyP1X_k_2Zv-7" edge="1">
          <mxGeometry relative="1" as="geometry" />
        </mxCell>
        <mxCell id="njigGxz5zvyP1X_k_2Zv-28" style="edgeStyle=orthogonalEdgeStyle;rounded=0;orthogonalLoop=1;jettySize=auto;html=1;exitX=1;exitY=0.5;exitDx=0;exitDy=0;entryX=0;entryY=0.5;entryDx=0;entryDy=0;endArrow=none;endFill=0;" parent="1" source="njigGxz5zvyP1X_k_2Zv-4" target="njigGxz5zvyP1X_k_2Zv-26" edge="1">
          <mxGeometry relative="1" as="geometry" />
        </mxCell>
        <mxCell id="A0oqkQ_May9Y_VzeUb8P-8" style="edgeStyle=orthogonalEdgeStyle;rounded=0;orthogonalLoop=1;jettySize=auto;html=1;entryX=1;entryY=0.5;entryDx=0;entryDy=0;endArrow=none;endFill=0;" parent="1" source="njigGxz5zvyP1X_k_2Zv-4" target="A0oqkQ_May9Y_VzeUb8P-5" edge="1">
          <mxGeometry relative="1" as="geometry" />
        </mxCell>
        <mxCell id="A0oqkQ_May9Y_VzeUb8P-9" style="edgeStyle=orthogonalEdgeStyle;rounded=0;orthogonalLoop=1;jettySize=auto;html=1;exitX=0.5;exitY=1;exitDx=0;exitDy=0;entryX=0;entryY=0.5;entryDx=0;entryDy=0;endArrow=none;endFill=0;" parent="1" source="njigGxz5zvyP1X_k_2Zv-4" target="A0oqkQ_May9Y_VzeUb8P-6" edge="1">
          <mxGeometry relative="1" as="geometry" />
        </mxCell>
        <mxCell id="njigGxz5zvyP1X_k_2Zv-4" value="&lt;font style=&quot;font-size: 14px;&quot;&gt;Veículo&lt;/font&gt;" style="rounded=0;whiteSpace=wrap;html=1;" parent="1" vertex="1">
          <mxGeometry x="530" y="400" width="120" height="60" as="geometry" />
        </mxCell>
        <mxCell id="njigGxz5zvyP1X_k_2Zv-14" style="edgeStyle=orthogonalEdgeStyle;rounded=0;orthogonalLoop=1;jettySize=auto;html=1;exitX=0;exitY=0.5;exitDx=0;exitDy=0;entryX=0.5;entryY=0;entryDx=0;entryDy=0;endArrow=none;endFill=0;" parent="1" source="njigGxz5zvyP1X_k_2Zv-5" target="njigGxz5zvyP1X_k_2Zv-2" edge="1">
          <mxGeometry relative="1" as="geometry" />
        </mxCell>
        <mxCell id="njigGxz5zvyP1X_k_2Zv-15" style="edgeStyle=orthogonalEdgeStyle;rounded=0;orthogonalLoop=1;jettySize=auto;html=1;entryX=0.5;entryY=1;entryDx=0;entryDy=0;endArrow=none;endFill=0;" parent="1" source="njigGxz5zvyP1X_k_2Zv-5" target="njigGxz5zvyP1X_k_2Zv-3" edge="1">
          <mxGeometry relative="1" as="geometry" />
        </mxCell>
        <mxCell id="njigGxz5zvyP1X_k_2Zv-5" value="&lt;font style=&quot;font-size: 14px;&quot;&gt;Contata&lt;/font&gt;" style="rhombus;whiteSpace=wrap;html=1;" parent="1" vertex="1">
          <mxGeometry x="200" y="260" width="80" height="80" as="geometry" />
        </mxCell>
        <mxCell id="njigGxz5zvyP1X_k_2Zv-17" style="edgeStyle=orthogonalEdgeStyle;rounded=0;orthogonalLoop=1;jettySize=auto;html=1;entryX=0.5;entryY=1;entryDx=0;entryDy=0;endArrow=none;endFill=0;" parent="1" source="njigGxz5zvyP1X_k_2Zv-6" target="njigGxz5zvyP1X_k_2Zv-3" edge="1">
          <mxGeometry relative="1" as="geometry" />
        </mxCell>
        <mxCell id="njigGxz5zvyP1X_k_2Zv-18" style="edgeStyle=orthogonalEdgeStyle;rounded=0;orthogonalLoop=1;jettySize=auto;html=1;entryX=0.5;entryY=0;entryDx=0;entryDy=0;endArrow=none;endFill=0;" parent="1" source="njigGxz5zvyP1X_k_2Zv-6" target="njigGxz5zvyP1X_k_2Zv-4" edge="1">
          <mxGeometry relative="1" as="geometry" />
        </mxCell>
        <mxCell id="njigGxz5zvyP1X_k_2Zv-6" value="&lt;font style=&quot;font-size: 14px;&quot;&gt;Possui&lt;/font&gt;" style="rhombus;whiteSpace=wrap;html=1;" parent="1" vertex="1">
          <mxGeometry x="440" y="260" width="80" height="80" as="geometry" />
        </mxCell>
        <mxCell id="njigGxz5zvyP1X_k_2Zv-19" value="&lt;font style=&quot;font-size: 14px;&quot;&gt;CPF&lt;/font&gt;" style="ellipse;whiteSpace=wrap;html=1;" parent="1" vertex="1">
          <mxGeometry x="-160" y="530" width="120" height="40" as="geometry" />
        </mxCell>
        <mxCell id="njigGxz5zvyP1X_k_2Zv-20" value="&lt;font style=&quot;font-size: 14px;&quot;&gt;CPF&lt;/font&gt;" style="ellipse;whiteSpace=wrap;html=1;" parent="1" vertex="1">
          <mxGeometry y="530" width="120" height="40" as="geometry" />
        </mxCell>
        <mxCell id="njigGxz5zvyP1X_k_2Zv-26" value="&lt;font style=&quot;font-size: 14px;&quot;&gt;Placa&lt;/font&gt;" style="ellipse;whiteSpace=wrap;html=1;" parent="1" vertex="1">
          <mxGeometry x="680" y="410" width="120" height="40" as="geometry" />
        </mxCell>
        <mxCell id="A0oqkQ_May9Y_VzeUb8P-2" value="&lt;font style=&quot;font-size: 14px;&quot;&gt;Modelo&lt;/font&gt;" style="rounded=0;whiteSpace=wrap;html=1;" parent="1" vertex="1">
          <mxGeometry x="304" y="530" width="120" height="60" as="geometry" />
        </mxCell>
        <mxCell id="A0oqkQ_May9Y_VzeUb8P-3" value="&lt;span style=&quot;font-size: 14px;&quot;&gt;Marca&lt;/span&gt;" style="rounded=0;whiteSpace=wrap;html=1;" parent="1" vertex="1">
          <mxGeometry x="750" y="530" width="120" height="60" as="geometry" />
        </mxCell>
        <mxCell id="A0oqkQ_May9Y_VzeUb8P-11" style="edgeStyle=orthogonalEdgeStyle;rounded=0;orthogonalLoop=1;jettySize=auto;html=1;exitX=0;exitY=0.5;exitDx=0;exitDy=0;entryX=1;entryY=0.5;entryDx=0;entryDy=0;endArrow=none;endFill=0;" parent="1" source="A0oqkQ_May9Y_VzeUb8P-5" target="A0oqkQ_May9Y_VzeUb8P-2" edge="1">
          <mxGeometry relative="1" as="geometry" />
        </mxCell>
        <mxCell id="A0oqkQ_May9Y_VzeUb8P-5" value="&lt;font style=&quot;font-size: 14px;&quot;&gt;Possui&lt;/font&gt;" style="rhombus;whiteSpace=wrap;html=1;" parent="1" vertex="1">
          <mxGeometry x="481" y="520" width="80" height="80" as="geometry" />
        </mxCell>
        <mxCell id="A0oqkQ_May9Y_VzeUb8P-10" style="edgeStyle=orthogonalEdgeStyle;rounded=0;orthogonalLoop=1;jettySize=auto;html=1;exitX=1;exitY=0.5;exitDx=0;exitDy=0;entryX=0;entryY=0.5;entryDx=0;entryDy=0;endArrow=none;endFill=0;" parent="1" source="A0oqkQ_May9Y_VzeUb8P-6" target="A0oqkQ_May9Y_VzeUb8P-3" edge="1">
          <mxGeometry relative="1" as="geometry" />
        </mxCell>
        <mxCell id="A0oqkQ_May9Y_VzeUb8P-6" value="&lt;font style=&quot;font-size: 14px;&quot;&gt;Possui&lt;/font&gt;" style="rhombus;whiteSpace=wrap;html=1;" parent="1" vertex="1">
          <mxGeometry x="620" y="520" width="80" height="80" as="geometry" />
        </mxCell>
        <mxCell id="8dOA6z9LL_m_rFrBO-1a-2" value="" style="edgeStyle=orthogonalEdgeStyle;rounded=0;orthogonalLoop=1;jettySize=auto;html=1;entryX=0;entryY=0.5;entryDx=0;entryDy=0;endArrow=none;endFill=0;" edge="1" parent="1" source="njigGxz5zvyP1X_k_2Zv-7" target="8dOA6z9LL_m_rFrBO-1a-1">
          <mxGeometry relative="1" as="geometry">
            <mxPoint x="40" y="430" as="sourcePoint" />
            <mxPoint x="375" y="430" as="targetPoint" />
          </mxGeometry>
        </mxCell>
        <mxCell id="8dOA6z9LL_m_rFrBO-1a-3" value="" style="edgeStyle=orthogonalEdgeStyle;rounded=0;orthogonalLoop=1;jettySize=auto;html=1;entryX=0;entryY=0.5;entryDx=0;entryDy=0;endArrow=none;endFill=0;" edge="1" parent="1" source="njigGxz5zvyP1X_k_2Zv-2" target="njigGxz5zvyP1X_k_2Zv-7">
          <mxGeometry relative="1" as="geometry">
            <mxPoint x="40" y="430" as="sourcePoint" />
            <mxPoint x="210" y="430" as="targetPoint" />
          </mxGeometry>
        </mxCell>
        <mxCell id="njigGxz5zvyP1X_k_2Zv-7" value="&lt;font style=&quot;font-size: 14px;&quot;&gt;Possui&lt;/font&gt;" style="rhombus;whiteSpace=wrap;html=1;" parent="1" vertex="1">
          <mxGeometry x="90" y="390" width="80" height="80" as="geometry" />
        </mxCell>
        <mxCell id="8dOA6z9LL_m_rFrBO-1a-8" style="edgeStyle=orthogonalEdgeStyle;rounded=0;orthogonalLoop=1;jettySize=auto;html=1;exitX=0;exitY=0.5;exitDx=0;exitDy=0;entryX=1;entryY=0.5;entryDx=0;entryDy=0;endArrow=none;endFill=0;" edge="1" parent="1" source="8dOA6z9LL_m_rFrBO-1a-4" target="8dOA6z9LL_m_rFrBO-1a-1">
          <mxGeometry relative="1" as="geometry" />
        </mxCell>
        <mxCell id="8dOA6z9LL_m_rFrBO-1a-9" style="edgeStyle=orthogonalEdgeStyle;rounded=0;orthogonalLoop=1;jettySize=auto;html=1;exitX=1;exitY=0.5;exitDx=0;exitDy=0;entryX=0;entryY=0.5;entryDx=0;entryDy=0;endArrow=none;endFill=0;" edge="1" parent="1" source="8dOA6z9LL_m_rFrBO-1a-4" target="njigGxz5zvyP1X_k_2Zv-4">
          <mxGeometry relative="1" as="geometry" />
        </mxCell>
        <mxCell id="8dOA6z9LL_m_rFrBO-1a-4" value="&lt;font style=&quot;font-size: 14px;&quot;&gt;Possui&lt;/font&gt;" style="rhombus;whiteSpace=wrap;html=1;" vertex="1" parent="1">
          <mxGeometry x="389" y="390" width="80" height="80" as="geometry" />
        </mxCell>
        <mxCell id="8dOA6z9LL_m_rFrBO-1a-1" value="&lt;font style=&quot;font-size: 14px;&quot;&gt;Alugel&lt;/font&gt;" style="rounded=0;whiteSpace=wrap;html=1;" vertex="1" parent="1">
          <mxGeometry x="220" y="400" width="120" height="60" as="geometry" />
        </mxCell>
        <mxCell id="8dOA6z9LL_m_rFrBO-1a-17" value="&lt;font style=&quot;font-size: 14px;&quot;&gt;(N...1)&lt;/font&gt;" style="text;html=1;align=center;verticalAlign=middle;resizable=0;points=[];autosize=1;strokeColor=none;fillColor=none;" vertex="1" parent="1">
          <mxGeometry x="399" y="470" width="60" height="30" as="geometry" />
        </mxCell>
        <mxCell id="8dOA6z9LL_m_rFrBO-1a-18" value="&lt;font style=&quot;font-size: 14px;&quot;&gt;(1...N)&lt;/font&gt;" style="text;html=1;align=center;verticalAlign=middle;resizable=0;points=[];autosize=1;strokeColor=none;fillColor=none;" vertex="1" parent="1">
          <mxGeometry x="100" y="470" width="60" height="30" as="geometry" />
        </mxCell>
        <mxCell id="8dOA6z9LL_m_rFrBO-1a-19" value="&lt;font style=&quot;font-size: 14px;&quot;&gt;(1...N)&lt;/font&gt;" style="text;html=1;align=center;verticalAlign=middle;resizable=0;points=[];autosize=1;strokeColor=none;fillColor=none;" vertex="1" parent="1">
          <mxGeometry x="450" y="230" width="60" height="30" as="geometry" />
        </mxCell>
        <mxCell id="8dOA6z9LL_m_rFrBO-1a-20" value="&lt;font style=&quot;font-size: 14px;&quot;&gt;(N...N)&lt;/font&gt;" style="text;html=1;align=center;verticalAlign=middle;resizable=0;points=[];autosize=1;strokeColor=none;fillColor=none;" vertex="1" parent="1">
          <mxGeometry x="210" y="228" width="60" height="30" as="geometry" />
        </mxCell>
        <mxCell id="8dOA6z9LL_m_rFrBO-1a-21" value="&lt;font style=&quot;font-size: 14px;&quot;&gt;(N...1)&lt;/font&gt;" style="text;html=1;align=center;verticalAlign=middle;resizable=0;points=[];autosize=1;strokeColor=none;fillColor=none;" vertex="1" parent="1">
          <mxGeometry x="630" y="490" width="60" height="30" as="geometry" />
        </mxCell>
        <mxCell id="8dOA6z9LL_m_rFrBO-1a-23" value="&lt;font style=&quot;font-size: 14px;&quot;&gt;(1...N)&lt;/font&gt;" style="text;html=1;align=center;verticalAlign=middle;resizable=0;points=[];autosize=1;strokeColor=none;fillColor=none;" vertex="1" parent="1">
          <mxGeometry x="491" y="600" width="60" height="30" as="geometry" />
        </mxCell>
      </root>
    </mxGraphModel>
  </diagram>
</mxfile>
